<?xml version="1.0" encoding="UTF-8"?>
<svg id="Livello_1" data-name="Livello 1" xmlns="http://www.w3.org/2000/svg" viewBox="0 0 411.59 81.88">
  <defs>
    <style>
      .cls-1 {
        fill: none;
      }

      .cls-1, .cls-2, .cls-3 {
        stroke-width: 0px;
      }

      .cls-2 {
        fill: #1e1e1c;
      }

      .cls-3 {
        fill: #1d1d1b;
      }
    </style>
  </defs>
  <path class="cls-2" d="M377.09,62.63c-14.97,0-24.12-8.68-24.12-25.08h12.26c0,9.07,4.54,13.77,12.02,13.77s12.04-4.94,12.04-13.77h12.24c0,16.88-9.47,25.08-24.44,25.08Z"/>
  <g>
    <path class="cls-2" d="M30.24,62.61c-7.9,0-15.87-2.76-22.12-8.34l6.78-8.12c4.69,3.87,9.61,6.33,15.57,6.33,4.69,0,7.52-1.86,7.52-4.92v-.15c0-2.91-1.79-4.39-10.5-6.63-10.5-2.68-17.28-5.59-17.28-15.94v-.15c0-9.46,7.6-15.72,18.25-15.72,7.6,0,14.08,2.38,19.37,6.63l-5.96,8.64c-4.62-3.2-9.16-5.14-13.56-5.14s-6.7,2.01-6.7,4.54v.15c0,3.43,2.23,4.54,11.25,6.85,10.58,2.76,16.54,6.56,16.54,15.64v.15c0,10.35-7.9,16.16-19.14,16.16Z"/>
    <path class="cls-2" d="M81.57,61.87v-4.32c-2.76,3.05-6.56,5.07-12.07,5.07-7.52,0-13.7-4.32-13.7-12.22v-.15c0-8.72,6.63-12.74,16.09-12.74,4.02,0,6.93.67,9.76,1.64v-.67c0-4.69-2.91-7.3-8.57-7.3-4.32,0-7.37.82-11.02,2.16l-2.83-8.64c4.39-1.94,8.72-3.2,15.49-3.2,12.36,0,17.8,6.41,17.8,17.21v23.16h-10.95ZM81.79,45.78c-1.94-.89-4.47-1.49-7.22-1.49-4.84,0-7.82,1.94-7.82,5.51v.15c0,3.05,2.53,4.84,6.18,4.84,5.29,0,8.86-2.9,8.86-7v-2.01Z"/>
    <path class="cls-2" d="M126.04,62.61c-6.03,0-9.76-2.76-12.44-5.96v17.13h-11.32V21.94h11.32v5.74c2.76-3.72,6.55-6.48,12.44-6.48,9.31,0,18.17,7.3,18.17,20.63v.15c0,13.33-8.72,20.63-18.17,20.63ZM132.89,41.83c0-6.63-4.47-11.02-9.76-11.02s-9.68,4.39-9.68,11.02v.15c0,6.63,4.39,11.02,9.68,11.02s9.76-4.32,9.76-11.02v-.15Z"/>
    <path class="cls-2" d="M152.78,17.55V7.49h11.92v10.06h-11.92ZM153.08,61.87V21.94h11.32v39.92h-11.32Z"/>
    <path class="cls-2" d="M212.15,45.85h-27.78c1.12,5.14,4.69,7.82,9.76,7.82,3.8,0,6.55-1.19,9.68-4.1l6.48,5.74c-3.72,4.62-9.09,7.45-16.31,7.45-11.99,0-20.86-8.42-20.86-20.63v-.15c0-11.4,8.12-20.78,19.74-20.78,13.33,0,19.44,10.35,19.44,21.67v.15c0,1.12-.07,1.79-.15,2.83ZM192.86,30.29c-4.69,0-7.75,3.35-8.64,8.49h17.06c-.67-5.07-3.65-8.49-8.42-8.49Z"/>
    <path class="cls-2" d="M245.97,61.87v-22.27c0-5.36-2.53-8.12-6.85-8.12s-7.08,2.76-7.08,8.12v22.27h-11.32V21.94h11.32v5.66c2.61-3.35,5.96-6.41,11.69-6.41,8.57,0,13.56,5.66,13.56,14.82v25.85h-11.32Z"/>
    <path class="cls-2" d="M265.78,61.87v-7.97l20.63-22.79h-19.96v-9.16h34.04v7.97l-20.71,22.79h20.71v9.16h-34.71Z"/>
    <path class="cls-2" d="M332.45,61.87v-4.32c-2.76,3.05-6.56,5.07-12.07,5.07-7.52,0-13.7-4.32-13.7-12.22v-.15c0-8.72,6.63-12.74,16.09-12.74,4.02,0,6.93.67,9.76,1.64v-.67c0-4.69-2.91-7.3-8.57-7.3-4.32,0-7.37.82-11.02,2.16l-2.83-8.64c4.39-1.94,8.72-3.2,15.49-3.2,12.36,0,17.8,6.41,17.8,17.21v23.16h-10.95ZM332.67,45.78c-1.94-.89-4.47-1.49-7.22-1.49-4.84,0-7.82,1.94-7.82,5.51v.15c0,3.05,2.53,4.84,6.18,4.84,5.29,0,8.86-2.9,8.86-7v-2.01Z"/>
  </g>
  <circle class="cls-3" cx="356.03" cy="25.57" r="3.08"/>
  <circle class="cls-3" cx="362.15" cy="25.57" r="3.08"/>
  <circle class="cls-3" cx="395.41" cy="25.57" r="3.08"/>
  <circle class="cls-3" cx="362.15" cy="33.05" r="3.08"/>
  <path class="cls-3" d="M359.09,21.15c3.39,0,6.14-2.71,6.14-6.06h-12.28c0,3.35,2.75,6.06,6.14,6.06Z"/>
  <path class="cls-3" d="M352.98,13.69c3.38,0,6.12-2.74,6.12-6.12h-6.12v6.12Z"/>
  <path class="cls-3" d="M359.13,36.11c0-3.38-2.74-6.12-6.12-6.12v6.12h6.12Z"/>
  <path class="cls-3" d="M395.42,36.11c0-3.38-2.74-6.12-6.12-6.12v6.12h6.12Z"/>
  <path class="cls-3" d="M401.51,36.11c0-3.38-2.74-6.12-6.12-6.12v6.12h6.12Z"/>
  <path class="cls-3" d="M365.22,13.7c-3.38,0-6.12-2.74-6.12-6.12h6.12v6.12Z"/>
  <rect class="cls-3" x="389.29" y="7.57" width="12.23" height="6.12"/>
  <path class="cls-3" d="M395.4,21.14h0c-3.38,0-6.11-2.74-6.11-6.11h0s0,0,0,0c3.38,0,6.11,2.74,6.11,6.11h0Z"/>
  <path class="cls-3" d="M395.4,21.14h0c3.38,0,6.11-2.74,6.11-6.11h0s0,0,0,0c-3.38,0-6.11,2.74-6.11,6.11h0Z"/>
  <path class="cls-3" d="M389.29,22.49v6.16c1.7,0,3.08-1.38,3.08-3.08s-1.38-3.08-3.08-3.08Z"/>
  <path class="cls-3" d="M401.54,22.49v6.16c-1.7,0-3.08-1.38-3.08-3.08s1.38-3.08,3.08-3.08Z"/>
  <line class="cls-1" x1="352.98" y1="13.69" x2="352.95" y2="15.09"/>
  <line class="cls-1" x1="352.98" y1="13.69" x2="352.95" y2="15.09"/>
</svg>