<?xml version="1.0" encoding="UTF-8"?>
<svg id="Livello_1" data-name="Livello 1" xmlns="http://www.w3.org/2000/svg" viewBox="0 0 168.85 174.41">
  <defs>
    <style>
      .cls-1 {
        fill: #f089b7;
      }

      .cls-1, .cls-2, .cls-3, .cls-4, .cls-5, .cls-6, .cls-7, .cls-8, .cls-9 {
        stroke-width: 0px;
      }

      .cls-2 {
        fill: #e9493a;
      }

      .cls-3 {
        fill: #95c459;
      }

      .cls-4 {
        fill: #2884c7;
      }

      .cls-5 {
        fill: #f07e2a;
      }

      .cls-6 {
        fill: #fab732;
      }

      .cls-7 {
        fill: #21bcef;
      }

      .cls-8 {
        fill: #fff;
      }

      .cls-9 {
        fill: #bb5c9e;
      }
    </style>
  </defs>
  <path class="cls-8" d="M87.26,161.77c-38.85,0-62.62-22.53-62.62-65.1h31.83c0,23.56,11.78,35.75,31.21,35.75s31.26-12.81,31.26-35.75h31.78c0,43.82-24.59,65.1-63.45,65.1Z"/>
  <circle class="cls-7" cx="32.59" cy="65.55" r="7.99"/>
  <circle class="cls-7" cx="48.48" cy="65.55" r="7.99"/>
  <circle class="cls-4" cx="134.83" cy="65.55" r="7.99"/>
  <circle class="cls-1" cx="48.48" cy="84.98" r="7.99"/>
  <path class="cls-9" d="M40.54,54.07c8.8,0,15.94-7.04,15.94-15.73h-31.87c0,8.69,7.14,15.73,15.94,15.73Z"/>
  <path class="cls-3" d="M24.66,34.72c8.78,0,15.89-7.12,15.89-15.89h-15.89v15.89Z"/>
  <path class="cls-1" d="M40.63,92.93c0-8.78-7.12-15.89-15.89-15.89v15.89h15.89Z"/>
  <path class="cls-2" d="M134.85,92.93c0-8.78-7.12-15.89-15.89-15.89v15.89h15.89Z"/>
  <path class="cls-2" d="M150.67,92.93c0-8.78-7.12-15.89-15.89-15.89v15.89h15.89Z"/>
  <path class="cls-3" d="M56.45,34.73c-8.78,0-15.89-7.12-15.89-15.89h15.89v15.89Z"/>
  <rect class="cls-5" x="118.94" y="18.83" width="31.76" height="15.9"/>
  <path class="cls-6" d="M134.8,54.06h0c-8.77,0-15.87-7.11-15.87-15.87h0s0,0,0,0c8.77,0,15.87,7.11,15.87,15.87h0Z"/>
  <path class="cls-6" d="M134.8,54.06h0c8.77,0,15.87-7.11,15.87-15.87h0s0,0,0,0c-8.77,0-15.87,7.11-15.87,15.87h0Z"/>
  <path class="cls-4" d="M118.93,57.56v15.98c4.41,0,7.99-3.58,7.99-7.99s-3.58-7.99-7.99-7.99Z"/>
  <path class="cls-4" d="M150.73,57.56v15.98c-4.41,0-7.99-3.58-7.99-7.99s3.58-7.99,7.99-7.99Z"/>
</svg>